<?xml version="1.0" encoding="utf-8"?>
<!-- Generator: Adobe Illustrator 25.0.1, SVG Export Plug-In . SVG Version: 6.00 Build 0)  -->
<svg version="1.1" id="Capa_1" xmlns:svgjs="http://svgjs.com/svgjs"
	 xmlns="http://www.w3.org/2000/svg" xmlns:xlink="http://www.w3.org/1999/xlink" x="0px" y="0px" viewBox="0 0 512 512"
	 style="enable-background:new 0 0 512 512;" xml:space="preserve">
<style type="text/css">
	.st0{fill:#D7FF82;}
</style>
<g>
	<path class="st0" d="M387.3,251.3l56-56c6.2-6.2,6.2-16.4,0-22.6l-56-56c-6.2-6.2-16.4-6.2-22.6,0c-6.2,6.2-6.2,16.4,0,22.6
		l28.7,28.7H80c-8.8,0-16,7.2-16,16s7.2,16,16,16h313.4l-28.7,28.7c-3.1,3.1-4.7,7.2-4.7,11.3s1.6,8.2,4.7,11.3
		C370.9,257.6,381.1,257.6,387.3,251.3L387.3,251.3z"/>
	<path class="st0" d="M147.3,395.3c6.2-6.2,6.2-16.4,0-22.6L118.6,344H432c8.8,0,16-7.2,16-16s-7.2-16-16-16H118.6l28.7-28.7
		c6.2-6.2,6.2-16.4,0-22.6c-6.2-6.2-16.4-6.2-22.6,0l-56,56c-3.1,3.1-4.7,7.2-4.7,11.3s1.6,8.2,4.7,11.3l56,56
		C130.9,401.6,141.1,401.6,147.3,395.3L147.3,395.3z"/>
</g>
</svg>
