<?xml version="1.0" encoding="utf-8"?>
<!-- Generator: Adobe Illustrator 25.0.1, SVG Export Plug-In . SVG Version: 6.00 Build 0)  -->
<svg version="1.1" id="Capa_1" xmlns:svgjs="http://svgjs.com/svgjs"
	 xmlns="http://www.w3.org/2000/svg" xmlns:xlink="http://www.w3.org/1999/xlink" x="0px" y="0px" viewBox="0 0 512 512"
	 style="enable-background:new 0 0 512 512;" xml:space="preserve">
<style type="text/css">
	.st0{fill:#FFFFFF;}
</style>
<g>
	<g>
		<g>
			<path class="st0" d="M473.8,512c-10.2,0-19.8-4-27-11.2L322.9,376.9C288.7,400.3,248,413,206.5,413C92.6,413,0,320.4,0,206.5
				C0,92.6,92.6,0,206.5,0C320.4,0,413,92.6,413,206.5c0,41.5-12.7,82.2-36.1,116.4l123.9,123.9c7.2,7.2,11.2,16.8,11.2,27
				c0,10.2-4,19.8-11.2,27C493.6,508,484,512,473.8,512z M206.5,76.4c-71.7,0-130.1,58.4-130.1,130.1s58.4,130.1,130.1,130.1
				s130.1-58.4,130.1-130.1S278.2,76.4,206.5,76.4z"/>
			<path class="st0" d="M505.7,475.6L360.1,330c28.2-34.8,45.2-79.1,45.2-127.3C405.3,90.9,314.4,0,202.7,0S0,90.9,0,202.7
				s90.9,202.7,202.7,202.7c48.2,0,92.5-17,127.3-45.2l145.6,145.6c4.2,4.2,9.6,6.3,15.1,6.3s10.9-2.1,15.1-6.3
				C514.1,497.4,514.1,483.9,505.7,475.6z M202.7,362.7c-88.2,0-160-71.8-160-160s71.8-160,160-160s160,71.8,160,160
				S290.9,362.7,202.7,362.7z"/>
		</g>
	</g>
</g>
</svg>
